<svg xmlns="http://www.w3.org/2000/svg" xmlns:xlink="http://www.w3.org/1999/xlink" version="1.1" data-diagram-type="SEQUENCE" style="width:1510px;height:1152px;background:#FFFFFF;" width="1510px" height="1152px" viewBox="0 0 1510 1152" zoomAndPan="magnify" preserveAspectRatio="none" contentStyleType="text/css"><?plantuml 1.2026.8?><defs/><g font-family="sans-serif" lengthAdjust="spacing"><g class="title" data-source-line="1"><text x="558.236" y="27.995" fill="#000" font-size="14" textLength="392.185" font-weight="700">POST /stock/movimientos — registrar movimiento</text></g><rect x="13" y="194.992" width="1477.657" height="846.539" fill="none" style="stroke:#000;stroke-width:1.5;"/><rect x="32" y="390.594" width="1433.657" height="636.938" fill="none" style="stroke:#000;stroke-width:1.5;"/><rect x="51" y="686.594" width="1117.491" height="326.938" fill="none" style="stroke:#000;stroke-width:1.5;"/><g><title>Cliente</title><rect x="63.5" y="123.594" width="8" height="941.938" fill="#000" fill-opacity="0"/><line x1="67" y1="123.594" x2="67" y2="1065.531" style="stroke:#181818;stroke-width:0.5;stroke-dasharray:5,5;"/></g><g><title>ValidationPipe</title><rect x="279.537" y="123.594" width="8" height="941.938" fill="#000" fill-opacity="0"/><line x1="283.037" y1="123.594" x2="283.037" y2="1065.531" style="stroke:#181818;stroke-width:0.5;stroke-dasharray:5,5;"/></g><g><title>StockController</title><rect x="407.521" y="123.594" width="8" height="941.938" fill="#000" fill-opacity="0"/><line x1="411.021" y1="123.594" x2="411.021" y2="1065.531" style="stroke:#181818;stroke-width:0.5;stroke-dasharray:5,5;"/></g><g><title>RegisterStockMovementUseCase</title><rect x="670.512" y="123.594" width="8" height="941.938" fill="#000" fill-opacity="0"/><line x1="674.012" y1="123.594" x2="674.012" y2="1065.531" style="stroke:#181818;stroke-width:0.5;stroke-dasharray:5,5;"/></g><g><title>CatalogReader .contrato -. Catalog.</title><rect x="939.194" y="123.594" width="8" height="941.938" fill="#000" fill-opacity="0"/><line x1="942.694" y1="123.594" x2="942.694" y2="1065.531" style="stroke:#181818;stroke-width:0.5;stroke-dasharray:5,5;"/></g><g><title>StockRepository</title><rect x="1148.991" y="123.594" width="8" height="941.938" fill="#000" fill-opacity="0"/><line x1="1152.491" y1="123.594" x2="1152.491" y2="1065.531" style="stroke:#181818;stroke-width:0.5;stroke-dasharray:5,5;"/></g><g><title></title><rect x="1147.491" y="558.063" width="10" height="389.203" fill="#FFF" style="stroke:#181818;stroke-width:1;"/></g><g><title>PostgreSQL</title><rect x="1446.157" y="123.594" width="8" height="941.938" fill="#000" fill-opacity="0"/><line x1="1449.657" y1="123.594" x2="1449.657" y2="1065.531" style="stroke:#181818;stroke-width:0.5;stroke-dasharray:5,5;"/></g><text x="39.428" y="120.292" fill="#000" font-size="14" textLength="49.144">Cliente</text><ellipse cx="67" cy="55.797" rx="8" ry="8" fill="#E2E2F0" style="stroke:#181818;stroke-width:0.5;"/><path d="M67,63.797 L67,90.797 M54,71.797 L80,71.797 M67,90.797 L54,105.797 M67,90.797 L80,105.797" style="stroke:#181818;stroke-width:0.5;" fill="none"/><rect x="226.011" y="92.297" width="114.051" height="30.297" fill="#E2E2F0" style="stroke:#181818;stroke-width:0.5;" rx="2.5" ry="2.5"/><text x="233.011" y="112.292" fill="#000" font-size="14" textLength="100.051">ValidationPipe</text><rect x="350.062" y="92.297" width="121.919" height="30.297" fill="#E2E2F0" style="stroke:#181818;stroke-width:0.5;" rx="2.5" ry="2.5"/><text x="357.062" y="112.292" fill="#000" font-size="14" textLength="107.919">StockController</text><rect x="551.218" y="92.297" width="245.588" height="30.297" fill="#E2E2F0" style="stroke:#181818;stroke-width:0.5;" rx="2.5" ry="2.5"/><text x="558.218" y="112.292" fill="#000" font-size="14" textLength="231.588">RegisterStockMovementUseCase</text><rect x="806.806" y="92.297" width="271.776" height="30.297" fill="#E2E2F0" style="stroke:#181818;stroke-width:0.5;" rx="2.5" ry="2.5"/><text x="813.806" y="112.292" fill="#000" font-size="14" textLength="257.776">CatalogReader (contrato -> Catalog)</text><rect x="1088.582" y="92.297" width="127.818" height="30.297" fill="#E2E2F0" style="stroke:#181818;stroke-width:0.5;" rx="2.5" ry="2.5"/><text x="1095.582" y="112.292" fill="#000" font-size="14" textLength="113.818">StockRepository</text><text x="1406.281" y="120.292" fill="#000" font-size="14" textLength="80.753">PostgreSQL</text><path d="M1431.657,71.297 C1431.657,61.297 1449.657,61.297 1449.657,61.297 C1449.657,61.297 1467.657,61.297 1467.657,71.297 L1467.657,97.297 C1467.657,107.297 1449.657,107.297 1449.657,107.297 C1449.657,107.297 1431.657,107.297 1431.657,97.297 L1431.657,71.297" style="stroke:#181818;stroke-width:0.5;" fill="#E2E2F0"/><path d="M1431.657,71.297 C1431.657,81.297 1449.657,81.297 1449.657,81.297 C1449.657,81.297 1467.657,81.297 1467.657,71.297" style="stroke:#181818;stroke-width:0.5;" fill="none"/><text x="39.428" y="1078.526" fill="#000" font-size="14" textLength="49.144">Cliente</text><ellipse cx="67" cy="1090.328" rx="8" ry="8" fill="#E2E2F0" style="stroke:#181818;stroke-width:0.5;"/><path d="M67,1098.328 L67,1125.328 M54,1106.328 L80,1106.328 M67,1125.328 L54,1140.328 M67,1125.328 L80,1140.328" style="stroke:#181818;stroke-width:0.5;" fill="none"/><rect x="226.011" y="1065.531" width="114.051" height="30.297" fill="#E2E2F0" style="stroke:#181818;stroke-width:0.5;" rx="2.5" ry="2.5"/><text x="233.011" y="1085.526" fill="#000" font-size="14" textLength="100.051">ValidationPipe</text><rect x="350.062" y="1065.531" width="121.919" height="30.297" fill="#E2E2F0" style="stroke:#181818;stroke-width:0.5;" rx="2.5" ry="2.5"/><text x="357.062" y="1085.526" fill="#000" font-size="14" textLength="107.919">StockController</text><rect x="551.218" y="1065.531" width="245.588" height="30.297" fill="#E2E2F0" style="stroke:#181818;stroke-width:0.5;" rx="2.5" ry="2.5"/><text x="558.218" y="1085.526" fill="#000" font-size="14" textLength="231.588">RegisterStockMovementUseCase</text><rect x="806.806" y="1065.531" width="271.776" height="30.297" fill="#E2E2F0" style="stroke:#181818;stroke-width:0.5;" rx="2.5" ry="2.5"/><text x="813.806" y="1085.526" fill="#000" font-size="14" textLength="257.776">CatalogReader (contrato -> Catalog)</text><rect x="1088.582" y="1065.531" width="127.818" height="30.297" fill="#E2E2F0" style="stroke:#181818;stroke-width:0.5;" rx="2.5" ry="2.5"/><text x="1095.582" y="1085.526" fill="#000" font-size="14" textLength="113.818">StockRepository</text><text x="1406.281" y="1078.526" fill="#000" font-size="14" textLength="80.753">PostgreSQL</text><path d="M1431.657,1091.828 C1431.657,1081.828 1449.657,1081.828 1449.657,1081.828 C1449.657,1081.828 1467.657,1081.828 1467.657,1091.828 L1467.657,1117.828 C1467.657,1127.828 1449.657,1127.828 1449.657,1127.828 C1449.657,1127.828 1431.657,1127.828 1431.657,1117.828 L1431.657,1091.828" style="stroke:#181818;stroke-width:0.5;" fill="#E2E2F0"/><path d="M1431.657,1091.828 C1431.657,1101.828 1449.657,1101.828 1449.657,1101.828 C1449.657,1101.828 1467.657,1101.828 1467.657,1091.828" style="stroke:#181818;stroke-width:0.5;" fill="none"/><polygon points="271.037,178.992,281.037,182.992,271.037,186.992,275.037,182.992" fill="#181818" style="stroke:#181818;stroke-width:1;stroke-linejoin:miter;stroke-miterlimit:10;"/><line x1="67" y1="182.992" x2="277.037" y2="182.992" style="stroke:#181818;stroke-width:1;"/><text x="74" y="162.793" fill="#000" font-size="13" font-weight="700">1</text><text x="87.045" y="147.661" fill="#000" font-size="13" textLength="165.915">POST /stock/movimientos</text><text x="87.045" y="162.793" fill="#000" font-size="13" textLength="163.09">{ sku, quantity, motive }</text><text x="87.045" y="177.926" fill="#000" font-size="13" textLength="178.991">+ header Idempotency-Key</text><path d="M13,194.992 L77.443,194.992 L77.443,202.125 L67.443,212.125 L13,212.125 L13,194.992" style="stroke:#000;stroke-width:1.5;" fill="#EEE"/><rect x="13" y="194.992" width="1477.657" height="846.539" fill="none" style="stroke:#000;stroke-width:1.5;"/><text x="28" y="208.059" fill="#000" font-size="13" textLength="19.443" font-weight="700">alt</text><text x="92.443" y="207.203" fill="#000" font-size="11" textLength="170.833" font-weight="700">[payload o header invalido]</text><polygon points="78,239.258,68,243.258,78,247.258,74,243.258" fill="#181818" style="stroke:#181818;stroke-width:1;stroke-linejoin:miter;stroke-miterlimit:10;"/><line x1="72" y1="243.258" x2="282.037" y2="243.258" style="stroke:#181818;stroke-width:1;stroke-dasharray:2,2;"/><text x="84" y="238.192" fill="#000" font-size="13" font-weight="700">2</text><text x="97.045" y="238.192" fill="#000" font-size="13" textLength="111.604">400 Bad Request</text><line x1="13" y1="252.258" x2="1490.657" y2="252.258" style="stroke:#000;stroke-width:1;stroke-dasharray:2,2;"/><text x="18" y="264.468" fill="#000" font-size="11" textLength="47.62" font-weight="700">[valido]</text><polygon points="399.021,287.195,409.021,291.195,399.021,295.195,403.021,291.195" fill="#181818" style="stroke:#181818;stroke-width:1;stroke-linejoin:miter;stroke-miterlimit:10;"/><line x1="283.037" y1="291.195" x2="405.021" y2="291.195" style="stroke:#181818;stroke-width:1;"/><text x="290.037" y="286.129" fill="#000" font-size="13" font-weight="700">3</text><text x="303.082" y="286.129" fill="#000" font-size="13" textLength="21.303">dto</text><polygon points="662.012,316.328,672.012,320.328,662.012,324.328,666.012,320.328" fill="#181818" style="stroke:#181818;stroke-width:1;stroke-linejoin:miter;stroke-miterlimit:10;"/><line x1="411.021" y1="320.328" x2="668.012" y2="320.328" style="stroke:#181818;stroke-width:1;"/><text x="418.021" y="315.262" fill="#000" font-size="13" font-weight="700">4</text><text x="431.067" y="315.262" fill="#000" font-size="13" textLength="95.754">execute(input)</text><polygon points="930.694,345.461,940.694,349.461,930.694,353.461,934.694,349.461" fill="#181818" style="stroke:#181818;stroke-width:1;stroke-linejoin:miter;stroke-miterlimit:10;"/><line x1="674.012" y1="349.461" x2="936.694" y2="349.461" style="stroke:#181818;stroke-width:1;"/><text x="681.012" y="344.395" fill="#000" font-size="13" font-weight="700">5</text><text x="694.057" y="344.395" fill="#000" font-size="13" textLength="141.781">getVariantBySku(sku)</text><polygon points="685.012,374.594,675.012,378.594,685.012,382.594,681.012,378.594" fill="#181818" style="stroke:#181818;stroke-width:1;stroke-linejoin:miter;stroke-miterlimit:10;"/><line x1="679.012" y1="378.594" x2="941.694" y2="378.594" style="stroke:#181818;stroke-width:1;stroke-dasharray:2,2;"/><text x="691.012" y="373.528" fill="#000" font-size="13" font-weight="700">6</text><text x="704.057" y="373.528" fill="#000" font-size="13" textLength="133.39">CatalogVariant | null</text><path d="M32,390.594 L96.443,390.594 L96.443,397.727 L86.443,407.727 L32,407.727 L32,390.594" style="stroke:#000;stroke-width:1.5;" fill="#EEE"/><rect x="32" y="390.594" width="1433.657" height="636.938" fill="none" style="stroke:#000;stroke-width:1.5;"/><text x="47" y="403.661" fill="#000" font-size="13" textLength="19.443" font-weight="700">alt</text><text x="111.443" y="402.804" fill="#000" font-size="11" textLength="135.389" font-weight="700">[variante inexistente]</text><polygon points="422.021,434.859,412.021,438.859,422.021,442.859,418.021,438.859" fill="#181818" style="stroke:#181818;stroke-width:1;stroke-linejoin:miter;stroke-miterlimit:10;"/><line x1="416.021" y1="438.859" x2="673.012" y2="438.859" style="stroke:#181818;stroke-width:1;stroke-dasharray:2,2;"/><text x="428.021" y="433.793" fill="#000" font-size="13" font-weight="700">7</text><text x="441.067" y="433.793" fill="#000" font-size="13" textLength="142.257">VariantNotFoundError</text><polygon points="78,463.992,68,467.992,78,471.992,74,467.992" fill="#181818" style="stroke:#181818;stroke-width:1;stroke-linejoin:miter;stroke-miterlimit:10;"/><line x1="72" y1="467.992" x2="410.021" y2="467.992" style="stroke:#181818;stroke-width:1;stroke-dasharray:2,2;"/><text x="84" y="462.926" fill="#000" font-size="13" font-weight="700">8</text><text x="97.045" y="462.926" fill="#000" font-size="13" textLength="96.015">404 Not Found</text><line x1="32" y1="476.992" x2="1465.657" y2="476.992" style="stroke:#000;stroke-width:1;stroke-dasharray:2,2;"/><text x="37" y="489.203" fill="#000" font-size="11" textLength="103.238" font-weight="700">[variante existe]</text><line x1="674.012" y1="515.93" x2="716.012" y2="515.93" style="stroke:#181818;stroke-width:1;"/><line x1="716.012" y1="515.93" x2="716.012" y2="528.93" style="stroke:#181818;stroke-width:1;"/><line x1="675.012" y1="528.93" x2="716.012" y2="528.93" style="stroke:#181818;stroke-width:1;"/><polygon points="685.012,524.93,675.012,528.93,685.012,532.93,681.012,528.93" fill="#181818" style="stroke:#181818;stroke-width:1;stroke-linejoin:miter;stroke-miterlimit:10;"/><text x="681.012" y="510.864" fill="#000" font-size="13" font-weight="700">9</text><text x="694.057" y="510.864" fill="#000" font-size="13" textLength="233.283">construir StockMovement (dominio)</text><polygon points="1135.491,554.063,1145.491,558.063,1135.491,562.063,1139.491,558.063" fill="#181818" style="stroke:#181818;stroke-width:1;stroke-linejoin:miter;stroke-miterlimit:10;"/><line x1="674.012" y1="558.063" x2="1141.491" y2="558.063" style="stroke:#181818;stroke-width:1;"/><text x="681.012" y="552.997" fill="#000" font-size="13" textLength="18.091" font-weight="700">10</text><text x="703.103" y="552.997" fill="#000" font-size="13" textLength="248.257">register(movement, idempotencyKey)</text><polygon points="1437.657,583.195,1447.657,587.195,1437.657,591.195,1441.657,587.195" fill="#181818" style="stroke:#181818;stroke-width:1;stroke-linejoin:miter;stroke-miterlimit:10;"/><line x1="1157.491" y1="587.195" x2="1443.657" y2="587.195" style="stroke:#181818;stroke-width:1;"/><text x="1164.491" y="582.129" fill="#000" font-size="13" textLength="18.091" font-weight="700">11</text><text x="1186.582" y="582.129" fill="#000" font-size="13" textLength="40.765">BEGIN</text><polygon points="1437.657,612.328,1447.657,616.328,1437.657,620.328,1441.657,616.328" fill="#181818" style="stroke:#181818;stroke-width:1;stroke-linejoin:miter;stroke-miterlimit:10;"/><line x1="1157.491" y1="616.328" x2="1443.657" y2="616.328" style="stroke:#181818;stroke-width:1;"/><text x="1164.491" y="611.262" fill="#000" font-size="13" textLength="18.091" font-weight="700">12</text><text x="1186.582" y="611.262" fill="#000" font-size="13" textLength="251.075">upsert stock_items + UPDATE atomico</text><polygon points="1437.657,641.461,1447.657,645.461,1437.657,649.461,1441.657,645.461" fill="#181818" style="stroke:#181818;stroke-width:1;stroke-linejoin:miter;stroke-miterlimit:10;"/><line x1="1157.491" y1="645.461" x2="1443.657" y2="645.461" style="stroke:#181818;stroke-width:1;"/><text x="1164.491" y="640.395" fill="#000" font-size="13" textLength="18.091" font-weight="700">13</text><text x="1186.582" y="640.395" fill="#000" font-size="13" textLength="169.209">INSERT stock_movements</text><polygon points="1437.657,670.594,1447.657,674.594,1437.657,678.594,1441.657,674.594" fill="#181818" style="stroke:#181818;stroke-width:1;stroke-linejoin:miter;stroke-miterlimit:10;"/><line x1="1157.491" y1="674.594" x2="1443.657" y2="674.594" style="stroke:#181818;stroke-width:1;"/><text x="1164.491" y="669.528" fill="#000" font-size="13" textLength="18.091" font-weight="700">14</text><text x="1186.582" y="669.528" fill="#000" font-size="13" textLength="53.517">COMMIT</text><path d="M51,686.594 L115.443,686.594 L115.443,693.727 L105.443,703.727 L51,703.727 L51,686.594" style="stroke:#000;stroke-width:1.5;" fill="#EEE"/><rect x="51" y="686.594" width="1117.491" height="326.938" fill="none" style="stroke:#000;stroke-width:1.5;"/><text x="66" y="699.661" fill="#000" font-size="13" textLength="19.443" font-weight="700">alt</text><text x="130.443" y="698.804" fill="#000" font-size="11" textLength="119.92" font-weight="700">[stock insuficiente]</text><polygon points="685.012,730.859,675.012,734.859,685.012,738.859,681.012,734.859" fill="#181818" style="stroke:#181818;stroke-width:1;stroke-linejoin:miter;stroke-miterlimit:10;"/><line x1="679.012" y1="734.859" x2="1146.491" y2="734.859" style="stroke:#181818;stroke-width:1;stroke-dasharray:2,2;"/><text x="691.012" y="729.793" fill="#000" font-size="13" textLength="18.091" font-weight="700">15</text><text x="713.103" y="729.793" fill="#000" font-size="13" textLength="71.722">insufficient</text><polygon points="422.021,759.992,412.021,763.992,422.021,767.992,418.021,763.992" fill="#181818" style="stroke:#181818;stroke-width:1;stroke-linejoin:miter;stroke-miterlimit:10;"/><line x1="416.021" y1="763.992" x2="673.012" y2="763.992" style="stroke:#181818;stroke-width:1;stroke-dasharray:2,2;"/><text x="428.021" y="758.926" fill="#000" font-size="13" textLength="18.091" font-weight="700">16</text><text x="450.112" y="758.926" fill="#000" font-size="13" textLength="140.125">InsufficientStockError</text><polygon points="78,789.125,68,793.125,78,797.125,74,793.125" fill="#181818" style="stroke:#181818;stroke-width:1;stroke-linejoin:miter;stroke-miterlimit:10;"/><line x1="72" y1="793.125" x2="410.021" y2="793.125" style="stroke:#181818;stroke-width:1;stroke-dasharray:2,2;"/><text x="84" y="788.059" fill="#000" font-size="13" textLength="18.091" font-weight="700">17</text><text x="106.091" y="788.059" fill="#000" font-size="13" textLength="78.26">409 Conflict</text><line x1="51" y1="802.125" x2="1168.491" y2="802.125" style="stroke:#000;stroke-width:1;stroke-dasharray:2,2;"/><text x="56" y="814.335" fill="#000" font-size="11" textLength="180.259" font-weight="700">[idempotency key duplicada]</text><polygon points="685.012,837.063,675.012,841.063,685.012,845.063,681.012,841.063" fill="#181818" style="stroke:#181818;stroke-width:1;stroke-linejoin:miter;stroke-miterlimit:10;"/><line x1="679.012" y1="841.063" x2="1146.491" y2="841.063" style="stroke:#181818;stroke-width:1;stroke-dasharray:2,2;"/><text x="691.012" y="835.997" fill="#000" font-size="13" textLength="18.091" font-weight="700">18</text><text x="713.103" y="835.997" fill="#000" font-size="13" textLength="60.176">duplicate</text><polygon points="422.021,866.195,412.021,870.195,422.021,874.195,418.021,870.195" fill="#181818" style="stroke:#181818;stroke-width:1;stroke-linejoin:miter;stroke-miterlimit:10;"/><line x1="416.021" y1="870.195" x2="673.012" y2="870.195" style="stroke:#181818;stroke-width:1;stroke-dasharray:2,2;"/><text x="428.021" y="865.129" fill="#000" font-size="13" textLength="18.091" font-weight="700">19</text><text x="450.112" y="865.129" fill="#000" font-size="13" textLength="216.899">MovementAlreadyProcessedError</text><polygon points="78,895.328,68,899.328,78,903.328,74,899.328" fill="#181818" style="stroke:#181818;stroke-width:1;stroke-linejoin:miter;stroke-miterlimit:10;"/><line x1="72" y1="899.328" x2="410.021" y2="899.328" style="stroke:#181818;stroke-width:1;stroke-dasharray:2,2;"/><text x="84" y="894.262" fill="#000" font-size="13" textLength="18.091" font-weight="700">20</text><text x="106.091" y="894.262" fill="#000" font-size="13" textLength="78.26">409 Conflict</text><line x1="51" y1="908.328" x2="1168.491" y2="908.328" style="stroke:#000;stroke-width:1;stroke-dasharray:2,2;"/><text x="56" y="920.539" fill="#000" font-size="11" textLength="24.927" font-weight="700">[ok]</text><polygon points="685.012,943.266,675.012,947.266,685.012,951.266,681.012,947.266" fill="#181818" style="stroke:#181818;stroke-width:1;stroke-linejoin:miter;stroke-miterlimit:10;"/><line x1="679.012" y1="947.266" x2="1146.491" y2="947.266" style="stroke:#181818;stroke-width:1;stroke-dasharray:2,2;"/><text x="691.012" y="942.2" fill="#000" font-size="13" textLength="18.091" font-weight="700">21</text><text x="713.103" y="942.2" fill="#000" font-size="13" textLength="116.765">applied(available)</text><polygon points="422.021,972.398,412.021,976.398,422.021,980.398,418.021,976.398" fill="#181818" style="stroke:#181818;stroke-width:1;stroke-linejoin:miter;stroke-miterlimit:10;"/><line x1="416.021" y1="976.398" x2="673.012" y2="976.398" style="stroke:#181818;stroke-width:1;stroke-dasharray:2,2;"/><text x="428.021" y="971.333" fill="#000" font-size="13" textLength="18.091" font-weight="700">22</text><text x="450.112" y="971.333" fill="#000" font-size="13" textLength="37.064">result</text><polygon points="78,1001.531,68,1005.531,78,1009.531,74,1005.531" fill="#181818" style="stroke:#181818;stroke-width:1;stroke-linejoin:miter;stroke-miterlimit:10;"/><line x1="72" y1="1005.531" x2="410.021" y2="1005.531" style="stroke:#181818;stroke-width:1;stroke-dasharray:2,2;"/><text x="84" y="1000.465" fill="#000" font-size="13" textLength="18.091" font-weight="700">23</text><text x="106.091" y="1000.465" fill="#000" font-size="13" textLength="168.295">201 Created { available }</text><?plantuml-src dPFDJjj04CVlVefHJeaWWbPSsWCICMaLjO2RhnDIjTX3kihQQtPdBIoAr8Ve4_P9ElQk4rp2fOT4zknlzl-V3vCaXP3SB9PmOacdsvDSLpANM92syEVNRp2uaPQCCB0_YOGZNRZy3aqaKj861h5gJd00me9_ZafXIAQo50N1O2sKp0H9NIIozDWwwIEBHZ_M1Hcj51f_5HdLf-Qj7pGjVQKhp5bhPJ4Mrb-xYli9iI2Xz6QE8aC3mxGH4AHXV0xXQEIb_Ci1JtCijPLSPjs2pMl4jOWxbeH1eYrj32w-VMrFBoTHv1lGAAmJ-FXMUs-B9x1RTmmFZhKarSVSOf8LmlDjSGG_lE5PXdcf2Okq7d_1EXAAe1IrqY83tK6og9h-wWWQnN5JchVm4SvEJs72x1mV75gAKB7f7dtUTfdHZ9fG-yB1LSmXVCJK4GvbKJeQyIb7zurZO8Eq5aPo0PDwiNL3BgZ1Ec3SNHG2WOMVK3Yb66pAgNmGkGnyR8RBptpanVRsGkwrfa_Q5TdK66rQp3lk5tq6p44BCXEA3Z9UPASG7F9Yy9uxQQ2tMZ3CT2uBgKSl4feLu1GJTd6O1_WOv7vSF2sVmv-8h0GBjvlJHDfylkTomhTCffzdrw_3hhHe2Dgr-Iu9Smj7i4ekBvPJuFtDPNhWhjdrOZfVXgJEbNtDnJTNLxEbTwU22BVVkdjU_Lt_kwIkHIqGY03qHpHx0RHTt0_fy9W-07_mzqgc_hvsJYzQ25ki8NCb0o8J1ps5qvtZlg5kYXVAy9TI9qQdQ2rc_-DBRmyQ42KRm6meAY6Lk5Cu2bY6hmV_hp-3rYbwqyZxqtSGitF239vWfm3FtfNVRVxdtry0?></g></svg>